<svg xmlns="http://www.w3.org/2000/svg" width="71.982" height="71.982" viewBox="0 0 71.982 71.982">
  <g id="Icon_akar-newspaper" data-name="Icon akar-newspaper" transform="translate(-2.5 -2.5)">
    <path id="Path_151" data-name="Path 151" d="M7.5,72.482H52.822A15.107,15.107,0,0,0,67.929,57.375V12.054A7.554,7.554,0,0,0,60.375,4.5H22.607a7.554,7.554,0,0,0-7.554,7.554v49.1C15.054,67.41,13.758,72.482,7.5,72.482Z" transform="translate(4.554 0)" fill="none" stroke="#cb2724" stroke-linecap="round" stroke-linejoin="round" stroke-width="4"/>
    <path id="Path_152" data-name="Path 152" d="M4.5,19.554A7.554,7.554,0,0,1,12.054,12h7.554V51.656c0,5.212-2.342,9.442-7.554,9.442S4.5,56.868,4.5,51.656Z" transform="translate(0 11.384)" fill="none" stroke="#cb2724" stroke-linecap="round" stroke-linejoin="round" stroke-width="4"/>
    <path id="Path_153" data-name="Path 153" d="M24.054,14.277A3.777,3.777,0,1,1,20.277,10.5,3.777,3.777,0,0,1,24.054,14.277Z" transform="translate(18.214 9.107)" fill="none" stroke="#cb2724" stroke-linecap="round" stroke-width="4"/>
    <path id="Path_154" data-name="Path 154" d="M16.5,21H39.161M16.5,32.33H27.83" transform="translate(18.214 25.045)" fill="none" stroke="#cb2724" stroke-linecap="round" stroke-width="4"/>
  </g>
</svg>
