<svg id="Group_94" data-name="Group 94" xmlns="http://www.w3.org/2000/svg" xmlns:xlink="http://www.w3.org/1999/xlink" width="68.969" height="68.965" viewBox="0 0 68.969 68.965">
  <defs>
    <clipPath id="clip-path">
      <rect id="Rectangle_49" data-name="Rectangle 49" width="68.969" height="68.965" fill="#ca201c"/>
    </clipPath>
  </defs>
  <g id="Group_93" data-name="Group 93" clip-path="url(#clip-path)">
    <path id="Path_134" data-name="Path 134" d="M34.414,68.961c-5.216,0-10.431.009-15.647,0A18.349,18.349,0,0,1,.014,50.281q-.028-15.79,0-31.58A18.344,18.344,0,0,1,18.757.015C27.9,0,37.035.033,46.174,0a9.916,9.916,0,0,1,7.143,2.793Q59.532,8.651,65.8,14.451a9.578,9.578,0,0,1,3.167,7.4c-.028,9.474,0,18.948-.014,28.422A18.347,18.347,0,0,1,50.2,68.959c-5.263.011-10.527,0-15.79,0M45.969,4.617H44.325q-12.7,0-25.407,0c-8.345.007-14.295,5.943-14.3,14.274q-.012,15.574,0,31.149c.005,8.347,5.943,14.3,14.266,14.312q15.574.012,31.149,0c8.35-.006,14.311-5.939,14.319-14.258q.014-13.924,0-27.847c0-.466-.04-.932-.068-1.546-2.987,0-5.891.009-8.8,0a9.184,9.184,0,0,1-9.515-9.492c-.01-2.143,0-4.286,0-6.592m4.622,1.944c0,2.021-.076,3.684.019,5.337a4.37,4.37,0,0,0,3.895,4.121c1.961.163,3.946.035,6.254.035L50.591,6.561" transform="translate(0 0)" fill="#ca201c"/>
  </g>
</svg>
