<svg xmlns="http://www.w3.org/2000/svg" width="331.222" height="246.8" viewBox="0 0 331.222 246.8">
  <g id="Customer_Survey-rafiki" data-name="Customer Survey-rafiki" transform="translate(0 -55)">
    <g id="freepik--background-complete--inject-66" transform="translate(0 55)">
      <rect id="Rectangle_94" data-name="Rectangle 94" width="331.222" height="0.166" transform="translate(0 216.884)" fill="#ebebeb"/>
      <rect id="Rectangle_95" data-name="Rectangle 95" width="21.94" height="0.166" transform="translate(276.094 227.543)" fill="#ebebeb"/>
      <rect id="Rectangle_96" data-name="Rectangle 96" width="5.757" height="0.166" transform="translate(213.658 229.345)" fill="#ebebeb"/>
      <rect id="Rectangle_97" data-name="Rectangle 97" width="12.712" height="0.166" transform="translate(262.719 221.396)" fill="#ebebeb"/>
      <rect id="Rectangle_98" data-name="Rectangle 98" width="28.611" height="0.166" transform="translate(34.752 222.509)" fill="#ebebeb"/>
      <rect id="Rectangle_99" data-name="Rectangle 99" width="4.193" height="0.166" transform="translate(69.265 222.509)" fill="#ebebeb"/>
      <rect id="Rectangle_100" data-name="Rectangle 100" width="62.058" height="0.166" transform="translate(87.092 225.304)" fill="#ebebeb"/>
      <path id="Path_156" data-name="Path 156" d="M169.9,242.339H41.986a3.783,3.783,0,0,1-3.776-3.783V58.749A3.783,3.783,0,0,1,41.986,55H169.9a3.783,3.783,0,0,1,3.783,3.783V238.557A3.783,3.783,0,0,1,169.9,242.339ZM41.986,55.132a3.617,3.617,0,0,0-3.61,3.617V238.557a3.617,3.617,0,0,0,3.61,3.617H169.9a3.624,3.624,0,0,0,3.617-3.617V58.749a3.624,3.624,0,0,0-3.617-3.617Z" transform="translate(-12.898 -55)" fill="#ebebeb"/>
      <path id="Path_157" data-name="Path 157" d="M386.2,242.339H258.283a3.789,3.789,0,0,1-3.783-3.783V58.749A3.789,3.789,0,0,1,258.283,55H386.2a3.783,3.783,0,0,1,3.769,3.749V238.557A3.783,3.783,0,0,1,386.2,242.339ZM258.283,55.132a3.624,3.624,0,0,0-3.617,3.617V238.557a3.624,3.624,0,0,0,3.617,3.617H386.2a3.624,3.624,0,0,0,3.617-3.617V58.749a3.624,3.624,0,0,0-3.617-3.617Z" transform="translate(-85.908 -55)" fill="#ebebeb"/>
      <rect id="Rectangle_101" data-name="Rectangle 101" width="23.252" height="86.601" transform="translate(200.641 216.884) rotate(180)" fill="#e6e6e6"/>
      <path id="Path_158" data-name="Path 158" d="M271.649,378.427H267.78v-7.8h7.929Z" transform="translate(-90.391 -161.543)" fill="#f0f0f0"/>
      <rect id="Rectangle_102" data-name="Rectangle 102" width="23.252" height="86.601" transform="translate(295.278 216.884) rotate(180)" fill="#e6e6e6"/>
      <rect id="Rectangle_103" data-name="Rectangle 103" width="98.015" height="83.607" transform="translate(275.405 213.89) rotate(180)" fill="#f0f0f0"/>
      <rect id="Rectangle_104" data-name="Rectangle 104" width="92.007" height="22.927" transform="translate(272.404 156.913) rotate(180)" fill="#e6e6e6"/>
      <path id="Path_159" data-name="Path 159" d="M330.113,264.013H338.8c3.776,0,7.386-2.829,9.983-7.823H320.13C322.727,261.2,326.337,264.013,330.113,264.013Z" transform="translate(-108.062 -122.913)" fill="#f0f0f0"/>
      <path id="Path_160" data-name="Path 160" d="M407.831,378.427H411.7v-7.8H403.77Z" transform="translate(-136.295 -161.543)" fill="#f0f0f0"/>
      <rect id="Rectangle_105" data-name="Rectangle 105" width="92.007" height="22.927" transform="translate(272.404 183.55) rotate(180)" fill="#e6e6e6"/>
      <path id="Path_161" data-name="Path 161" d="M330.113,304.233H338.8c3.776,0,7.386-2.829,9.983-7.823H320.13C322.727,301.438,326.337,304.233,330.113,304.233Z" transform="translate(-108.062 -136.489)" fill="#f0f0f0"/>
      <rect id="Rectangle_106" data-name="Rectangle 106" width="92.007" height="22.927" transform="translate(272.404 210.187) rotate(180)" fill="#e6e6e6"/>
      <path id="Path_162" data-name="Path 162" d="M330.113,344.443H338.8c3.776,0,7.386-2.829,9.983-7.823H320.13C322.727,341.615,326.337,344.443,330.113,344.443Z" transform="translate(-108.062 -150.062)" fill="#f0f0f0"/>
      <rect id="Rectangle_107" data-name="Rectangle 107" width="88.794" height="89.847" transform="translate(140.458 110.641) rotate(180)" fill="#e6e6e6"/>
      <rect id="Rectangle_108" data-name="Rectangle 108" width="93.325" height="89.847" transform="translate(138.822 110.641) rotate(180)" fill="#f0f0f0"/>
      <rect id="Rectangle_109" data-name="Rectangle 109" width="74.214" height="77.685" transform="translate(131.012 28.611) rotate(90)" fill="#fff"/>
      <path id="Path_163" data-name="Path 163" d="M128.315,112.889l-14.256,14.282a18.423,18.423,0,0,0,0,26.021l14.256,14.262a.749.749,0,0,0,1.06,0l14.262-14.262a18.423,18.423,0,0,0,0-26.021l-14.256-14.282a.762.762,0,0,0-1.067,0Zm-13.2,39.217a16.919,16.919,0,0,1,0-23.894Zm27.458,0V128.238a16.919,16.919,0,0,1,0,23.894Z" transform="translate(-36.685 -74.467)" fill="#f0f0f0"/>
      <path id="Path_164" data-name="Path 164" d="M380.129,205h-49.61l-2.829,29.293H377.3Z" transform="translate(-110.614 -105.633)" fill="#e6e6e6"/>
      <path id="Path_165" data-name="Path 165" d="M377.2,249.22l-.2,1.623H327.38l.205-1.623Z" transform="translate(-110.509 -120.56)" fill="#e6e6e6"/>
      <path id="Path_166" data-name="Path 166" d="M377.826,205h-49.61l-2.835,29.293h49.61Z" transform="translate(-109.834 -105.633)" fill="#f0f0f0"/>
      <path id="Path_167" data-name="Path 167" d="M374.874,233.061l2.073-25.4a.623.623,0,0,0-.616-.662H330.722a.623.623,0,0,0-.623.57L328,232.961a.623.623,0,0,0,.623.662h45.609a.616.616,0,0,0,.643-.563Z" transform="translate(-110.718 -106.308)" fill="#fff"/>
      <path id="Path_168" data-name="Path 168" d="M352.821,249.22l-.2,1.623H297.99l.2-1.623Z" transform="translate(-100.588 -120.56)" fill="#f0f0f0"/>
      <rect id="Rectangle_110" data-name="Rectangle 110" width="93.16" height="61.932" transform="translate(278.704 83.706) rotate(180)" fill="#e6e6e6"/>
      <rect id="Rectangle_111" data-name="Rectangle 111" width="93.16" height="61.932" transform="translate(276.637 83.706) rotate(180)" fill="#f5f5f5"/>
      <rect id="Rectangle_112" data-name="Rectangle 112" width="53.579" height="85.727" transform="translate(272.921 25.955) rotate(90)" fill="#fff"/>
      <rect id="Rectangle_113" data-name="Rectangle 113" width="53.579" height="1.563" transform="translate(188.75 25.948) rotate(90)" fill="#e6e6e6"/>
      <rect id="Rectangle_114" data-name="Rectangle 114" width="90.086" height="5.604" transform="translate(275.1 72.425) rotate(180)" fill="#f5f5f5"/>
      <path id="Path_169" data-name="Path 169" d="M270.556,77.45H373.9a.576.576,0,0,1,.57.57h0a.57.57,0,0,1-.57.57H270.556a.57.57,0,0,1-.576-.57h0a.576.576,0,0,1,.576-.57Z" transform="translate(-91.133 -62.578)" fill="#e6e6e6"/>
      <path id="Path_170" data-name="Path 170" d="M267.83,77.581a1.431,1.431,0,1,0,.421-1.014A1.431,1.431,0,0,0,267.83,77.581Z" transform="translate(-90.407 -62.139)" fill="#e6e6e6"/>
      <path id="Path_171" data-name="Path 171" d="M419.158,81.523h0a.775.775,0,0,0,.775-.762V79.105a.775.775,0,0,0-.775-.775h0a.768.768,0,0,0-.768.775v1.656a.775.775,0,0,0,.768.762Z" transform="translate(-141.23 -62.875)" fill="#e6e6e6"/>
      <path id="Path_172" data-name="Path 172" d="M283.465,81.523h0a.782.782,0,0,0,.749-.762V79.105a.775.775,0,0,0-.775-.775h0a.768.768,0,0,0-.768.775v1.656a.775.775,0,0,0,.795.762Z" transform="translate(-95.417 -62.875)" fill="#e6e6e6"/>
      <rect id="Rectangle_115" data-name="Rectangle 115" width="95.491" height="60.17" transform="translate(275.1 75.611) rotate(180)" fill="#e0e0e0" opacity="0.4"/>
      <path id="Path_173" data-name="Path 173" d="M403.51,77.581a1.431,1.431,0,1,0,1.431-1.431A1.431,1.431,0,0,0,403.51,77.581Z" transform="translate(-136.207 -62.139)" fill="#e6e6e6"/>
      <rect id="Rectangle_116" data-name="Rectangle 116" width="7.658" height="66.423" transform="translate(139.816 212.592) rotate(180)" fill="#f0f0f0"/>
      <rect id="Rectangle_117" data-name="Rectangle 117" width="87.787" height="4.207" transform="translate(136.874 216.798) rotate(180)" fill="#f0f0f0"/>
      <rect id="Rectangle_118" data-name="Rectangle 118" width="86.012" height="66.423" transform="translate(46.146 146.168)" fill="#f5f5f5"/>
      <rect id="Rectangle_119" data-name="Rectangle 119" width="73.969" height="21.781" rx="7.12" transform="translate(52.168 154.343)" fill="#f0f0f0"/>
      <rect id="Rectangle_120" data-name="Rectangle 120" width="73.969" height="21.781" rx="7.12" transform="translate(52.168 182.629)" fill="#f0f0f0"/>
      <path id="Path_174" data-name="Path 174" d="M109.627,305.168h32.049a1.5,1.5,0,0,0,1.5-1.491h0a1.5,1.5,0,0,0-1.5-1.5H109.627a1.5,1.5,0,0,0-1.5,1.5h0a1.5,1.5,0,0,0,1.5,1.49Z" transform="translate(-36.5 -138.437)" fill="#f5f5f5"/>
      <path id="Path_175" data-name="Path 175" d="M109.627,347.868h32.049a1.5,1.5,0,0,0,1.5-1.491h0a1.5,1.5,0,0,0-1.5-1.5H109.627a1.5,1.5,0,0,0-1.5,1.5h0a1.5,1.5,0,0,0,1.5,1.49Z" transform="translate(-36.5 -152.851)" fill="#f5f5f5"/>
    </g>
    <g id="freepik--Shadow--inject-66" transform="translate(37.17 286.803)">
      <ellipse id="freepik--path--inject-66" cx="128.441" cy="7.499" rx="128.441" ry="7.499" fill="#f5f5f5"/>
    </g>
    <g id="freepik--Survey--inject-66" transform="translate(71.577 77.907)">
      <path id="Path_176" data-name="Path 176" d="M230.47,101.45H108.05l9.513,166.717H239.976Z" transform="translate(-108.05 -93.587)" fill="#263238"/>
      <path id="Path_177" data-name="Path 177" d="M234.06,101.45H111.64l9.513,166.717h122.42Z" transform="translate(-109.262 -93.587)" fill="#ca201c"/>
      <path id="Path_178" data-name="Path 178" d="M228.479,109.91H120.09l7.77,150.911h111.2Z" transform="translate(-112.114 -96.443)" opacity="0.5"/>
      <path id="Path_179" data-name="Path 179" d="M120.09,109.91c8.055,50.306,2.531,100.612,10.6,150.911H241.88c-8.055-50.3-2.531-100.605-10.6-150.911Z" transform="translate(-112.114 -96.443)" fill="#fff"/>
      <g id="Group_268" data-name="Group 268" transform="translate(20.079 56.811)" opacity="0.3">
        <path id="Path_180" data-name="Path 180" d="M148.992,177.215a9.586,9.586,0,0,1,9.5,9.162,8.7,8.7,0,0,1-8.784,9.069,9.5,9.5,0,0,1-9.413-9.122,8.764,8.764,0,0,1,2.4-6.419,8.645,8.645,0,0,1,6.293-2.65m-.066-1.914a10.5,10.5,0,0,0-10.553,11.016,11.467,11.467,0,0,0,11.361,11.016,10.6,10.6,0,0,0,10.679-11.016A11.573,11.573,0,0,0,148.926,175.34Z" transform="translate(-138.361 -175.34)" fill="#ca201c"/>
      </g>
      <path id="Path_181" data-name="Path 181" d="M228.372,302.92h-35.11a1.848,1.848,0,0,0-1.868,2.054h0a2.325,2.325,0,0,0,2.259,2.06h35.11a1.835,1.835,0,0,0,1.855-2.06h0A2.312,2.312,0,0,0,228.372,302.92Z" transform="translate(-136.179 -161.594)" fill="#e0e0e0"/>
      <path id="Path_182" data-name="Path 182" d="M246.776,289.87h-54.6a1.875,1.875,0,0,0-1.9,2.054h0a2.252,2.252,0,0,0,2.213,2.06H247.06a1.875,1.875,0,0,0,1.921-2.04h0A2.246,2.246,0,0,0,246.776,289.87Z" transform="translate(-135.803 -157.189)" fill="#e0e0e0"/>
      <g id="Group_269" data-name="Group 269" transform="translate(21.106 92.424)" opacity="0.3">
        <path id="Path_183" data-name="Path 183" d="M150.635,231.021a9.446,9.446,0,0,1,9.374,9.122,8.784,8.784,0,0,1-2.444,6.419,8.678,8.678,0,0,1-6.32,2.65,9.506,9.506,0,0,1-9.433-9.122,8.771,8.771,0,0,1,8.824-9.069m0-1.921h0a10.659,10.659,0,0,0-10.718,11.016,11.48,11.48,0,0,0,11.407,11.023,10.6,10.6,0,0,0,10.632-11.023A11.4,11.4,0,0,0,150.635,229.1Z" transform="translate(-139.911 -229.1)" fill="#ca201c"/>
      </g>
      <path id="Path_184" data-name="Path 184" d="M207.143,186.394h-18.78a2.153,2.153,0,0,1-2.133-2.06h0a1.987,1.987,0,0,1,1.987-2.054H206.99a2.166,2.166,0,0,1,2.146,2.054h0a1.987,1.987,0,0,1-1.994,2.06Z" transform="translate(-134.44 -120.871)" fill="#e0e0e0"/>
      <path id="Path_185" data-name="Path 185" d="M242.948,186.394H230.229a2.16,2.16,0,0,1-2.14-2.06h0a1.987,1.987,0,0,1,1.987-2.054H242.8a2.16,2.16,0,0,1,2.14,2.054h0a1.987,1.987,0,0,1-1.994,2.06Z" transform="translate(-148.57 -120.871)" fill="#e0e0e0"/>
      <path id="Path_186" data-name="Path 186" d="M239.228,199.444H188.816a2.14,2.14,0,0,1-2.126-2.06h0a1.987,1.987,0,0,1,1.987-2.054h50.405a2.133,2.133,0,0,1,2.12,2.054h0a1.987,1.987,0,0,1-1.974,2.06Z" transform="translate(-134.595 -125.276)" fill="#e0e0e0"/>
      <g id="Group_270" data-name="Group 270" transform="translate(22.909 128.042)" opacity="0.3">
        <path id="Path_187" data-name="Path 187" d="M152.991,284.783a10.043,10.043,0,0,1,9.8,9.128,8.38,8.38,0,0,1-2.06,6.412,8.088,8.088,0,0,1-6.134,2.65,10.228,10.228,0,0,1-10-9.122,8.267,8.267,0,0,1,2.16-6.419,8.387,8.387,0,0,1,6.234-2.65m-.093-1.914a10.069,10.069,0,0,0-10.222,11.016A12.378,12.378,0,0,0,154.787,304.9a9.866,9.866,0,0,0,9.937-11.016,12.083,12.083,0,0,0-11.818-11.016Z" transform="translate(-142.632 -282.867)" fill="#ca201c"/>
      </g>
      <path id="Path_188" data-name="Path 188" d="M248.346,249.13H190.177a1.987,1.987,0,0,0-1.987,2.054h0a2.146,2.146,0,0,0,2.126,2.054h58.2a1.987,1.987,0,0,0,1.987-2.054h0a2.133,2.133,0,0,0-2.153-2.054Z" transform="translate(-135.101 -143.437)" fill="#e0e0e0"/>
      <path id="Path_189" data-name="Path 189" d="M234.432,236.07H189.8a1.987,1.987,0,0,0-1.987,2.06h0a2.126,2.126,0,0,0,2.113,2.054h44.642a1.987,1.987,0,0,0,1.987-2.054h0a2.12,2.12,0,0,0-2.12-2.06Z" transform="translate(-134.973 -139.029)" fill="#e0e0e0"/>
      <path id="Path_190" data-name="Path 190" d="M152.2,193.926l-.782-1.285c-1.716-2.8-5.3-5.3-6.532-6.035l.927-1.643a25.332,25.332,0,0,1,6.412,5.538c2.815-3.783,6.929-7.671,12.5-11.871l1.2,1.55c-5.962,4.485-10.188,8.612-12.9,12.54C152.76,193.124,152.482,193.528,152.2,193.926Z" transform="translate(-120.486 -119.639)" fill="#ca201c"/>
      <path id="Path_191" data-name="Path 191" d="M153.707,247.722c-.258-.431-.523-.861-.788-1.285-1.722-2.8-5.3-5.3-6.518-6.041l.941-1.643a25.4,25.4,0,0,1,6.379,5.538c2.822-3.776,6.969-7.671,12.626-11.871l1.173,1.55c-6.042,4.485-10.294,8.612-12.991,12.54Z" transform="translate(-120.995 -137.796)" fill="#ca201c"/>
      <path id="Path_192" data-name="Path 192" d="M156.911,301.646l-.874-1.285a24.266,24.266,0,0,0-6.876-6.035l.861-1.643a27.857,27.857,0,0,1,6.684,5.531c2.6-3.776,6.545-7.671,12.03-11.864l1.239,1.55c-5.856,4.485-9.877,8.612-12.321,12.54Z" transform="translate(-121.927 -156.001)" fill="#ca201c"/>
      <path id="Path_193" data-name="Path 193" d="M222.274,129q-1.749,3.816-3.584,7.625a16.4,16.4,0,0,1,9.036,13.3h8.8C235.947,140.924,230.157,133.087,222.274,129Z" transform="translate(-145.397 -102.886)" fill="#ca201c"/>
      <path id="Path_194" data-name="Path 194" d="M173.442,150.183h8.8a14.024,14.024,0,0,1,6.121-12.832q-2.57-3.816-5.22-7.631C176.721,133.88,172.879,141.5,173.442,150.183Z" transform="translate(-130.105 -103.129)" fill="#263238"/>
      <path id="Path_195" data-name="Path 195" d="M200.044,124.539a21.689,21.689,0,0,0-11.924,3.431q2.65,3.816,5.22,7.631a13.911,13.911,0,0,1,7.724-2.266,16.064,16.064,0,0,1,7.287,1.8q1.828-3.816,3.584-7.625a25.968,25.968,0,0,0-11.891-2.968Z" transform="translate(-135.078 -101.38)" fill="#ca201c"/>
      <path id="Path_196" data-name="Path 196" d="M200.044,124.539a21.689,21.689,0,0,0-11.924,3.431q2.65,3.816,5.22,7.631a13.911,13.911,0,0,1,7.724-2.266,16.064,16.064,0,0,1,7.287,1.8q1.828-3.816,3.584-7.625a25.968,25.968,0,0,0-11.891-2.968Z" transform="translate(-135.078 -101.38)" fill="#263238" opacity="0.5"/>
      <path id="Path_197" data-name="Path 197" d="M216.924,151.51s-8.89,3.637-9.831,4.3a2.113,2.113,0,0,0-.378,3,2.219,2.219,0,0,0,3.034.576C210.723,158.684,216.937,151.51,216.924,151.51Zm-9.34,6.624a1.04,1.04,0,0,1,.185-1.477,1.106,1.106,0,0,1,1.5.285,1.04,1.04,0,0,1-.185,1.477,1.106,1.106,0,0,1-1.5-.258Z" transform="translate(-141.2 -110.485)" fill="#263238"/>
      <path id="Path_198" data-name="Path 198" d="M235.074,143.57a2.822,2.822,0,0,1-2.862,3.127,3.478,3.478,0,0,1-3.392-3.127,2.8,2.8,0,0,1,2.835-3.12A3.5,3.5,0,0,1,235.074,143.57Z" transform="translate(-148.811 -106.751)" fill="#fff"/>
      <path id="Path_199" data-name="Path 199" d="M231.912,143.827a.45.45,0,0,1-.45.5.55.55,0,0,1-.543-.5.444.444,0,0,1,.45-.5.55.55,0,0,1,.543.5Z" transform="translate(-149.524 -107.724)" fill="#263238"/>
      <path id="Path_200" data-name="Path 200" d="M235.489,143.827a.45.45,0,0,1-.457.5.563.563,0,0,1-.543-.5.444.444,0,0,1,.457-.5A.55.55,0,0,1,235.489,143.827Z" transform="translate(-150.729 -107.723)" fill="#263238"/>
      <path id="Path_201" data-name="Path 201" d="M232.833,147.433h0a2.65,2.65,0,0,1-1.769-.7.245.245,0,0,1,0-.344.239.239,0,0,1,.344,0,2.153,2.153,0,0,0,1.437.57h0a1.762,1.762,0,0,0,1.325-.556.246.246,0,1,1,.358.338A2.239,2.239,0,0,1,232.833,147.433Z" transform="translate(-149.55 -108.733)" fill="#263238"/>
      <path id="Path_202" data-name="Path 202" d="M208.418,129.51a2.749,2.749,0,0,1-2.782,3.127,3.584,3.584,0,0,1-3.471-3.127,2.716,2.716,0,0,1,2.756-3.12,3.617,3.617,0,0,1,3.5,3.12Z" transform="translate(-139.809 -102.005)" fill="#fff"/>
      <path id="Path_203" data-name="Path 203" d="M205.231,129.747a.437.437,0,0,1-.437.5.576.576,0,0,1-.556-.5.431.431,0,0,1,.437-.5A.57.57,0,0,1,205.231,129.747Z" transform="translate(-140.517 -102.971)" fill="#263238"/>
      <path id="Path_204" data-name="Path 204" d="M208.8,129.747a.437.437,0,0,1-.444.5.583.583,0,0,1-.556-.5.437.437,0,0,1,.444-.5A.576.576,0,0,1,208.8,129.747Z" transform="translate(-141.719 -102.971)" fill="#263238"/>
      <path id="Path_205" data-name="Path 205" d="M207.723,132.747h-3.1a.252.252,0,0,1,0-.5h3.1a.252.252,0,0,1,0,.5Z" transform="translate(-140.577 -103.983)" fill="#263238"/>
      <path id="Path_206" data-name="Path 206" d="M184.674,143.57a2.822,2.822,0,0,1-2.862,3.127,3.478,3.478,0,0,1-3.392-3.127,2.8,2.8,0,0,1,2.835-3.12A3.5,3.5,0,0,1,184.674,143.57Z" transform="translate(-131.798 -106.751)" fill="#fff"/>
      <path id="Path_207" data-name="Path 207" d="M181.492,143.827a.45.45,0,0,1-.45.5.55.55,0,0,1-.543-.5.444.444,0,0,1,.45-.5A.55.55,0,0,1,181.492,143.827Z" transform="translate(-132.504 -107.724)" fill="#263238"/>
      <path id="Path_208" data-name="Path 208" d="M185.072,143.827a.444.444,0,0,1-.45.5.563.563,0,0,1-.543-.5.444.444,0,0,1,.45-.5.543.543,0,0,1,.543.5Z" transform="translate(-133.713 -107.724)" fill="#263238"/>
      <path id="Path_209" data-name="Path 209" d="M180.88,147.426a.232.232,0,0,1-.166-.066.245.245,0,0,1,0-.344,2.272,2.272,0,0,1,1.676-.715,2.65,2.65,0,0,1,1.769.7.238.238,0,0,1,0,.344.258.258,0,0,1-.351,0,2.12,2.12,0,0,0-1.444-.57,1.775,1.775,0,0,0-1.325.55A.258.258,0,0,1,180.88,147.426Z" transform="translate(-132.554 -108.726)" fill="#263238"/>
      <path id="Path_210" data-name="Path 210" d="M221.473,103.478a13.377,13.377,0,0,0-12.09-7.234h-10.6a4.134,4.134,0,0,1-3.677-1.921c-1.477-2.769-5-4.743-9-4.743s-7.287,1.987-8.453,4.743a3.627,3.627,0,0,1-3.458,1.921H163.6c-5.2,0-9.7,2.882-11.262,7.234a1.073,1.073,0,0,0-.066.477,1.325,1.325,0,0,0,1.325,1.259H220.42a1.186,1.186,0,0,0,1.053-1.736Zm-34.937-6.035a3.166,3.166,0,0,1-3.094-2.948,2.756,2.756,0,0,1,2.782-2.948,3.16,3.16,0,0,1,3.12,2.948,2.756,2.756,0,0,1-2.809,2.948Z" transform="translate(-122.975 -89.58)" fill="#263238"/>
    </g>
    <g id="freepik--Character--inject-66" transform="translate(184.087 93.342)">
      <path id="Path_211" data-name="Path 211" d="M359.619,408.513a2.12,2.12,0,0,1-1.471-.364.457.457,0,0,1-.046-.5.49.49,0,0,1,.338-.272c.782-.219,2.59.749,2.65.795a.113.113,0,0,1,.066.119.1.1,0,0,1-.079.093A8.567,8.567,0,0,1,359.619,408.513Zm-.874-.941a.733.733,0,0,0-.219,0,.3.3,0,0,0-.212.159.319.319,0,0,0,0,.258c.265.311,1.5.318,2.385.192A5.731,5.731,0,0,0,358.745,407.572Z" transform="translate(-304.948 -212.277)" fill="#ca201c"/>
      <path id="Path_212" data-name="Path 212" d="M361.641,407.791h-.046c-.616-.265-1.9-1.325-1.875-1.868,0-.132.079-.291.4-.325a.941.941,0,0,1,.662.2,3.743,3.743,0,0,1,.967,1.875.119.119,0,0,1,0,.106.113.113,0,0,1-.106.013ZM360.23,405.8h-.066c-.205,0-.212.1-.212.126,0,.331.868,1.159,1.51,1.517a3.087,3.087,0,0,0-.815-1.5.662.662,0,0,0-.417-.133Z" transform="translate(-305.512 -211.687)" fill="#ca201c"/>
      <path id="Path_213" data-name="Path 213" d="M367.311,402.995h-4.869L360.7,391.72h4.869Z" transform="translate(-305.843 -207.004)" fill="#ffc3bd"/>
      <path id="Path_214" data-name="Path 214" d="M358.856,407.89h5.3a.49.49,0,0,1,.45.331l1.444,4.326a.662.662,0,0,1-.6.861c-1.921,0-4.7-.139-7.115-.139-2.815,0-2.564.152-5.869.152-1.987,0-2.776-2.02-1.987-2.206,3.716-.828,4.147-.921,7.207-2.948a2.047,2.047,0,0,1,1.173-.378Z" transform="translate(-302.29 -212.462)" fill="#263238"/>
      <path id="Path_215" data-name="Path 215" d="M360.7,391.73l.9,5.81h4.869l-.9-5.81Z" transform="translate(-305.843 -207.007)" opacity="0.2"/>
      <path id="Path_216" data-name="Path 216" d="M368.152,225.45,364.84,228.8l5.074,1.8s1.987-2.729.59-4.6Z" transform="translate(-307.24 -150.879)" fill="#ffc3bd"/>
      <path id="Path_217" data-name="Path 217" d="M363.16,235.177l5.068.742,1.133-3.624-5.074-1.8Z" transform="translate(-306.673 -152.583)" fill="#ffc3bd"/>
      <path id="Path_218" data-name="Path 218" d="M368.94,163.27c.431.927.775,1.716,1.12,2.577s.662,1.689.994,2.537c.629,1.7,1.192,3.438,1.716,5.194a54.848,54.848,0,0,1,1.325,5.4l.252,1.391.205,1.418c.073.47.119.961.159,1.444s.106.921.106,1.53v1.623l-.04.749-.073.709c-.086.954-.212,1.848-.331,2.756-.265,1.789-.57,3.537-.908,5.3-.7,3.465-1.471,6.85-2.4,10.261l-6.035-1.192c.384-3.365.782-6.783,1.1-10.149.152-1.683.318-3.359.411-5,.04-.808.086-1.63.086-2.4v-1.656l-.046-.437a9.932,9.932,0,0,0-.146-1.04c-.06-.371-.113-.742-.2-1.12l-.245-1.133-.285-1.139c-.411-1.524-.874-3.054-1.4-4.584s-1.12-3.054-1.742-4.564c-.3-.762-.623-1.517-.954-2.259s-.662-1.517-.987-2.16Z" transform="translate(-305.816 -129.889)" fill="#263238"/>
      <path id="Path_219" data-name="Path 219" d="M338.65,221.87s.808,37.256,2.994,52.095c2.279,15.435,10.6,65.112,10.6,65.112h8.241s-2.954-47.279-3.9-62.469c-1.027-16.561-.8-54.738-.8-54.738Z" transform="translate(-298.4 -149.67)" fill="#ca201c"/>
      <path id="Path_220" data-name="Path 220" d="M356.179,393.84c-.04,0,.848,3.425.848,3.425h10.029l-.073-3.054Z" transform="translate(-304.317 -207.72)" fill="#263238"/>
      <ellipse id="Ellipse_7" data-name="Ellipse 7" cx="0.749" cy="0.49" rx="0.749" ry="0.49" transform="matrix(0.061, -0.998, 0.998, 0.061, 37.369, 12.492)" fill="#263238"/>
      <path id="Path_221" data-name="Path 221" d="M334.473,131.78a15.369,15.369,0,0,1-2.093,3.524,2.332,2.332,0,0,0,1.954.371Z" transform="translate(-296.283 -119.26)" fill="#ed847e"/>
      <path id="Path_222" data-name="Path 222" d="M337.073,126.729a.285.285,0,0,1-.146-.04,1.868,1.868,0,0,0-1.7-.318.238.238,0,0,1-.311-.139.245.245,0,0,1,.152-.311,2.352,2.352,0,0,1,2.16.371.245.245,0,0,1,.046.338A.252.252,0,0,1,337.073,126.729Z" transform="translate(-297.134 -117.243)" fill="#263238"/>
      <path id="Path_223" data-name="Path 223" d="M349.458,137.52c-.821,3.564-1.749,10.089.662,12.461,0,0-1.1,3.61-7.717,3.61-7.287,0-3.345-3.61-3.345-3.61,3.975-.947,4.008-3.889,3.412-6.658Z" transform="translate(-298.178 -121.197)" fill="#ffc3bd"/>
      <path id="Path_224" data-name="Path 224" d="M351.81,156.647c.715-1.451,1.5-3.12,0-3.637-1.643-.576-10.725-1.159-13.911-.086a3.312,3.312,0,0,0-2.391,4.028Z" transform="translate(-297.304 -126.195)" fill="#ca201c"/>
      <path id="Path_225" data-name="Path 225" d="M367.58,158.143c4.193,1.934,6.326,16.6,6.326,16.6l-8.446,2.65a85.783,85.783,0,0,1-3.663-11.924C360.5,159.348,363.287,156.168,367.58,158.143Z" transform="translate(-306.105 -127.962)" fill="#263238"/>
      <path id="Path_226" data-name="Path 226" d="M288.56,191.182l-3.9-3.352-3.5,5.1s3.147,2.524,6.624,1.491Z" transform="translate(-278.994 -138.18)" fill="#ffc3bd"/>
      <path id="Path_227" data-name="Path 227" d="M278.427,185.38l-.537,5.041,2.166,1.683,3.5-5.1Z" transform="translate(-277.89 -137.353)" fill="#ffc3bd"/>
      <path id="Path_228" data-name="Path 228" d="M349.18,125.538c-.49,5.061-.523,8.042-3.173,10.639a6.624,6.624,0,0,1-11.169-3.465c-.927-4.544,0-12.056,5.054-14.07a6.684,6.684,0,0,1,9.287,6.9Z" transform="translate(-297.005 -114.64)" fill="#ffc3bd"/>
      <path id="Path_229" data-name="Path 229" d="M339.269,125.4c-.444-3.5-.371-4.823,1.5-5.6-1.941-.384-3.624-.437-4.425-1.57s-.994-4.028,2.9-5.353c-.358.662.775,2.04,4.359.795s8.8-1.378,9.274,2.266c1.895-.662,5.068,5.187,1.325,9.46-3.12,3.577-5.2,6.048-5.816,7.949a.662.662,0,0,1-.908.4c-1.292-.6-3.6-.086-4.637.192a.662.662,0,0,1-.755-.338A30.931,30.931,0,0,1,339.269,125.4Z" transform="translate(-297.462 -112.88)" fill="#263238"/>
      <path id="Path_230" data-name="Path 230" d="M360.48,117.583s1.537-2.166,4.485-.556a13.355,13.355,0,0,0-4.485.556Z" transform="translate(-305.769 -114.079)" fill="#263238"/>
      <path id="Path_231" data-name="Path 231" d="M360.86,116.922s2.14-1.325.47-3.822A9.626,9.626,0,0,1,360.86,116.922Z" transform="translate(-305.897 -112.954)" fill="#263238"/>
      <path id="Path_232" data-name="Path 232" d="M342.653,130.881a6.061,6.061,0,0,1-1.775,3.279c-1.226,1.159-2.285.338-2.319-1.153-.033-1.325.563-3.564,1.987-4.16S342.9,129.384,342.653,130.881Z" transform="translate(-298.369 -118.215)" fill="#ffc3bd"/>
      <path id="Path_233" data-name="Path 233" d="M339.68,253.12c.477,11.116,1.226,24.02,2.312,31.393.417,2.809,1.027,6.744,1.755,11.308C346.675,279.843,348.424,259.254,339.68,253.12Z" transform="translate(-298.748 -160.219)" opacity="0.3"/>
      <path id="Path_234" data-name="Path 234" d="M333.408,408.513c-.623,0-1.226-.086-1.418-.364a.451.451,0,0,1,0-.5.663.663,0,0,1,.378-.272c.815-.219,2.484.749,2.557.795a.1.1,0,0,1,.046.119.119.119,0,0,1-.093.093,8.892,8.892,0,0,1-1.471.132Zm-.735-.941a.782.782,0,0,0-.225,0,.351.351,0,0,0-.232.159c-.086.146-.06.219-.033.258.219.311,1.444.318,2.358.192a5.041,5.041,0,0,0-1.868-.609Z" transform="translate(-296.126 -212.277)" fill="#ca201c"/>
      <path id="Path_235" data-name="Path 235" d="M335.559,407.789h-.046c-.576-.265-1.709-1.325-1.6-1.868,0-.133.119-.292.437-.325a.855.855,0,0,1,.662.2,3.075,3.075,0,0,1,.662,1.875.139.139,0,0,1-.053.106.126.126,0,0,1-.066.013Zm-1.12-1.987h-.066c-.212,0-.225.1-.232.126-.066.331.7,1.159,1.285,1.517a2.65,2.65,0,0,0-.59-1.5.61.61,0,0,0-.4-.133Z" transform="translate(-296.799 -211.686)" fill="#ca201c"/>
      <path id="Path_236" data-name="Path 236" d="M341.955,402.995h-4.862L337,391.72h4.869Z" transform="translate(-297.843 -207.004)" fill="#ffc3bd"/>
      <path id="Path_237" data-name="Path 237" d="M331.143,407.89h5.3a.4.4,0,0,1,.4.331l.815,4.326a.735.735,0,0,1-.735.861c-1.914,0-4.684-.139-7.088-.139-2.822,0-5.26.152-8.565.152-1.987,0-2.478-2.02-1.636-2.206,3.836-.828,6.949-.921,10.308-2.948a2.365,2.365,0,0,1,1.206-.378Z" transform="translate(-291.847 -212.462)" fill="#263238"/>
      <path id="Path_238" data-name="Path 238" d="M337.01,391.73l.04,5.81h4.869l-.04-5.81Z" transform="translate(-297.846 -207.007)" opacity="0.2"/>
      <path id="Path_239" data-name="Path 239" d="M324.547,221.87S322.56,258.258,322.6,273.1c0,15.435,7.817,65.979,7.817,65.979h8.241s-2.146-49.644-1.219-64.787c.987-16.561,5.77-52.406,5.77-52.406Z" transform="translate(-292.982 -149.67)" fill="#ca201c"/>
      <path id="Path_240" data-name="Path 240" d="M332.178,393.84c-.04,0,.338,3.425.338,3.425h10.029l.384-3.054Z" transform="translate(-296.214 -207.72)" fill="#263238"/>
      <path id="Path_241" data-name="Path 241" d="M325.37,157.6s-8.294,20.953-4.684,57.169h30.287c.318-3.975-2.849-38.594,1.669-57.421a67.144,67.144,0,0,0-8.678-1.1,96.237,96.237,0,0,0-11.063,0,49.578,49.578,0,0,0-7.532,1.351Z" transform="translate(-292.029 -127.466)" fill="#263238"/>
      <path id="Path_242" data-name="Path 242" d="M321.21,183.121c-.45,3.312-.821,7.095-1.06,11.262,5.883-5.406,7.9-18.873,7.9-18.873Z" transform="translate(-292.155 -134.021)" opacity="0.2"/>
      <path id="Path_243" data-name="Path 243" d="M317.713,171.843c-1.192,3.1-2.4,6.088-3.723,9.089s-2.7,5.962-4.24,8.93l-.6,1.106-.3.556c-.126.225-.113.238-.457.815a6.479,6.479,0,0,1-2.391,2.226,7.128,7.128,0,0,1-2.59.782,10.9,10.9,0,0,1-3.71-.3,20.538,20.538,0,0,1-2.809-.914,36.534,36.534,0,0,1-4.75-2.385c-.749-.431-1.464-.894-2.173-1.325s-1.351-.98-2.113-1.51l3.577-5.485a46.549,46.549,0,0,0,8.049,3.491,12.149,12.149,0,0,0,1.809.411,2.544,2.544,0,0,0,1.06,0c.04,0-.086-.04-.3.073a1.782,1.782,0,0,0-.662.583c-.139.232.04-.113.1-.245l.238-.523.477-1.04c1.259-2.809,2.425-5.717,3.557-8.612s2.232-5.916,3.246-8.837Z" transform="translate(-281.252 -131.732)" fill="#263238"/>
      <path id="Path_244" data-name="Path 244" d="M329.785,160.41c1.55,4.332-9.42,21.775-9.42,21.775l-6.505-6.446s1.663-5.478,3.855-12.076C319.875,157.178,328.308,156.27,329.785,160.41Z" transform="translate(-290.032 -128.076)" fill="#263238"/>
    </g>
  </g>
</svg>
