<svg xmlns="http://www.w3.org/2000/svg" width="59.113" height="68.965" viewBox="0 0 59.113 68.965">
  <path id="Icon_material-outline-pending-actions" data-name="Icon material-outline-pending-actions" d="M48.693,37.625a16.42,16.42,0,1,0,16.42,16.42A16.426,16.426,0,0,0,48.693,37.625Zm5.419,24.138L47.051,54.7V44.193h3.284v9.162l6.075,6.075ZM51.977,8.068H41.533a9.813,9.813,0,0,0-18.522,0H12.568A6.587,6.587,0,0,0,6,14.636V63.9a6.587,6.587,0,0,0,6.568,6.568H32.634A22.144,22.144,0,0,1,27.97,63.9h-15.4V14.636h6.568v9.852H45.409V14.636h6.568V31.319a23.088,23.088,0,0,1,6.568,1.97V14.636A6.587,6.587,0,0,0,51.977,8.068Zm-19.7,6.568a3.284,3.284,0,1,1,3.284-3.284A3.294,3.294,0,0,1,32.272,14.636Z" transform="translate(-6 -1.5)" fill="#ca201c"/>
</svg>
