<svg id="Group_96" data-name="Group 96" xmlns="http://www.w3.org/2000/svg" xmlns:xlink="http://www.w3.org/1999/xlink" width="68.935" height="68.965" viewBox="0 0 68.935 68.965">
  <defs>
    <clipPath id="clip-path">
      <rect id="Rectangle_50" data-name="Rectangle 50" width="68.935" height="68.965" fill="#ca201c"/>
    </clipPath>
  </defs>
  <g id="Group_95" data-name="Group 95" clip-path="url(#clip-path)">
    <path id="Path_136" data-name="Path 136" d="M.006,34.443c0-6.943-.014-13.886,0-20.829C.03,5.693,5.669.026,13.574.015q20.893-.029,41.786,0c7.905.011,13.549,5.674,13.56,13.6q.028,20.9,0,41.8A13.088,13.088,0,0,1,55.429,68.947q-20.965.036-41.931,0A13.1,13.1,0,0,1,.01,55.416c-.021-6.991,0-13.982,0-20.973m4.134.047q0,10.194,0,20.388c0,6.152,3.765,9.94,9.88,9.941q20.453,0,40.906,0c6.047,0,9.862-3.793,9.864-9.812q.008-20.533,0-41.066c0-5.954-3.817-9.793-9.735-9.8q-20.6-.01-41.195,0c-5.853,0-9.71,3.842-9.718,9.666q-.014,10.339,0,20.677" transform="translate(0 0)" fill="#ca201c"/>
    <path id="Path_137" data-name="Path 137" d="M100.88,58.917A12.557,12.557,0,1,1,88.264,46.345,12.53,12.53,0,0,1,100.88,58.917M88.338,50.571a8.352,8.352,0,0,0-8.4,8.321,8.388,8.388,0,1,0,16.776.027,8.346,8.346,0,0,0-8.374-8.349" transform="translate(-53.859 -32.944)" fill="#ca201c"/>
    <path id="Path_138" data-name="Path 138" d="M73.419,153.583c-2.6,0-5.2-.027-7.8.007a6.384,6.384,0,0,0-6.655,5.885c-.211,1.482-1.13,2.349-2.333,2.2-1.241-.151-1.919-1.15-1.8-2.657a10.588,10.588,0,0,1,10.455-9.636q8.156-.13,16.317,0a10.57,10.57,0,0,1,10.4,9.37c.177,1.73-.466,2.779-1.8,2.926-1.235.136-2.091-.739-2.321-2.373a6.367,6.367,0,0,0-6.38-5.707c-2.694-.055-5.391-.011-8.086-.011Z" transform="translate(-38.967 -106.144)" fill="#ca201c"/>
  </g>
</svg>
