<svg id="Group_152" data-name="Group 152" xmlns="http://www.w3.org/2000/svg" xmlns:xlink="http://www.w3.org/1999/xlink" width="73.606" height="68.965" viewBox="0 0 73.606 68.965">
  <defs>
    <clipPath id="clip-path">
      <rect id="Rectangle_45" data-name="Rectangle 45" width="73.606" height="68.965" fill="#ca201c"/>
    </clipPath>
  </defs>
  <g id="Group_91" data-name="Group 91" clip-path="url(#clip-path)">
    <path id="Path_132" data-name="Path 132" d="M9.762,29.428a18.47,18.47,0,0,1,1.487-1.354,2.147,2.147,0,0,1,3,.2,2.023,2.023,0,0,1,.194,2.98c-1.987,2.136-4.053,4.208-6.193,6.191A2.089,2.089,0,0,1,5,36.906C3.444,34.667,1.937,32.392.459,30.1a2.257,2.257,0,0,1,.574-3.282,2.314,2.314,0,0,1,3.259.742c.2.26.393.528.724.976.162-.584.3-1,.393-1.428A34.488,34.488,0,1,1,42.893,68.731c-12.367,1.309-22.554-2.889-30.4-12.6a7.943,7.943,0,0,1-.514-.691,2.286,2.286,0,0,1,.406-3.209,2.323,2.323,0,0,1,3.309.48,50.4,50.4,0,0,0,4.6,4.916C37.352,72.008,64.4,62.213,68.406,40.244A29.851,29.851,0,0,0,43.864,4.98C28.4,2.259,12.671,13.1,9.819,28.444c-.043.23-.029.471-.057.984" transform="translate(0 0)" fill="#ca201c"/>
    <path id="Path_133" data-name="Path 133" d="M124,56.658c0-3.257-.006-6.514,0-9.771.005-1.82.849-2.857,2.3-2.861s2.3,1.042,2.307,2.852c.008,5.891.027,11.783-.021,17.674a2.344,2.344,0,0,0,1.075,2.133c3.767,2.8,7.492,5.651,11.242,8.471a2.572,2.572,0,0,1,1.336,2.642c-.339,1.765-2.225,2.426-3.8,1.263q-5.494-4.045-10.922-8.179c-4.072-3.1-3.466-1.851-3.507-7.039-.019-2.395,0-4.79,0-7.185" transform="translate(-88.361 -31.376)" fill="#ca201c"/>
  </g>
</svg>
