<svg id="Group_102" data-name="Group 102" xmlns="http://www.w3.org/2000/svg" xmlns:xlink="http://www.w3.org/1999/xlink" width="72.042" height="66.576" viewBox="0 0 72.042 66.576">
  <defs>
    <clipPath id="clip-path">
      <rect id="Rectangle_53" data-name="Rectangle 53" width="72.042" height="66.576" fill="#ca201c" stroke="#ca201c" stroke-width="1"/>
    </clipPath>
  </defs>
  <g id="Group_101" data-name="Group 101" clip-path="url(#clip-path)">
    <path id="Path_145" data-name="Path 145" d="M43.328,131.2c3.656-.775,7.138-1.515,10.62-2.251,3.639-.77,7.274-1.556,10.918-2.3a5.8,5.8,0,0,1,7.018,4.284,5.723,5.723,0,0,1-4.329,6.841c-10.488,2.832-20.99,5.614-31.477,8.449a8.346,8.346,0,0,1-6.036-.818c-2.942-1.453-5.752-3.178-8.716-4.58a73.558,73.558,0,0,0-7.385-2.871c-1-.348-1.846-.22-2.189,1.23a3.249,3.249,0,0,1-3.234,2.465,49.1,49.1,0,0,1-4.93,0,3.642,3.642,0,0,1-3.556-3.686q-.064-10.8,0-21.607a3.75,3.75,0,0,1,3.7-3.733,41.622,41.622,0,0,1,4.641,0,4.01,4.01,0,0,1,3.692,3.047c2.246-.509,4.393-1.062,6.567-1.472a9.957,9.957,0,0,1,8.252,2.159,89.947,89.947,0,0,0,8.229,5.117c1.739,1.045,3.52,2.019,5.273,3.042,2.629,1.534,3.487,3.4,2.939,6.684m-31.272,4.218c.971.1,1.694.135,2.406.241,3.523.524,6.524,2.313,9.588,3.955,2.424,1.3,4.8,2.715,7.33,3.777a7.068,7.068,0,0,0,4.179.458c10.429-2.67,20.818-5.5,31.213-8.3,2.187-.59,3.308-2.3,2.82-4.168-.493-1.884-2.276-2.851-4.46-2.4-3.452.717-6.9,1.434-10.35,2.174-4.861,1.044-9.731,2.051-14.568,3.2a6.224,6.224,0,0,1-4.88-.487c-2.333-1.37-4.684-2.708-7.027-4.062a26.42,26.42,0,0,1-3.1-1.864c-.355-.276-.322-1.049-.466-1.595A6.473,6.473,0,0,1,26.291,126c.339,0,.677.338,1.011.531,3.1,1.787,6.179,3.6,9.292,5.354a2.974,2.974,0,1,0,2.958-5.147c-1.444-.879-2.943-1.668-4.381-2.557-3.61-2.231-7.156-4.568-10.821-6.7a6.8,6.8,0,0,0-3.8-1.046,76.1,76.1,0,0,0-7.482,1.544c-.841.175-1.033.655-1.022,1.446.037,2.8.014,5.607.014,8.41,0,2.506,0,5.012,0,7.58m-2.351-8.23c0-3.428-.011-6.856.006-10.284.006-1.311-.585-1.984-1.915-1.978-1.208.005-2.416-.012-3.623.006a1.613,1.613,0,0,0-1.826,1.766q-.007,10.429,0,20.858a1.584,1.584,0,0,0,1.769,1.8c1.159.01,2.319.022,3.478,0,1.746-.028,2.1-.385,2.113-2.176.017-3.332,0-6.663,0-9.995" transform="translate(0 -79.897)" fill="#ca201c" stroke="#ca201c" stroke-width="1"/>
    <path id="Path_146" data-name="Path 146" d="M138.09,16.659c3.694,0,4.1.473,4.214,4.319a20.409,20.409,0,0,1-.177,3.321c-.214,1.591-.911,2.258-2.51,2.172-1.25-.067-1.872.366-2.087,1.544a1.917,1.917,0,0,1-.265.671c-.754,1.18-.888,2.157.415,3.177a1.924,1.924,0,0,1,.115,2.97,46.028,46.028,0,0,1-3.874,3.894c-1.171,1.029-2.216.944-3.3-.253a1.728,1.728,0,0,0-2.575-.391,14.35,14.35,0,0,1-2.392.967c-.057.1-.144.182-.141.26.147,4.05-1.173,3.78-4.094,4a19.681,19.681,0,0,1-3.468-.175c-1.58-.165-2.3-.853-2.211-2.462a1.8,1.8,0,0,0-1.658-2.181,1.121,1.121,0,0,1-.4-.156c-1.275-.868-2.351-.917-3.437.431a1.814,1.814,0,0,1-2.738.131,55.465,55.465,0,0,1-4.19-4.184,1.946,1.946,0,0,1,.172-2.866,12.269,12.269,0,0,1,1.386-1.09,14.285,14.285,0,0,1-.908-2.047c-.389-1.572-1.09-2.487-2.954-2.282A1.78,1.78,0,0,1,99.1,24.611a54.785,54.785,0,0,1-.006-5.922,1.948,1.948,0,0,1,2.276-1.927A1.932,1.932,0,0,0,103.765,15a13.286,13.286,0,0,1,.973-2.225c-.242-.277-.5-.6-.795-.9-1.5-1.551-1.585-2.334-.153-3.976a32.217,32.217,0,0,1,3.3-3.25c1.348-1.156,2.362-1.133,3.53.146.8.878,1.488,1.081,2.457.374a2.745,2.745,0,0,1,1.067-.435c1.248-.245,1.707-.91,1.6-2.22a2.039,2.039,0,0,1,2.118-2.4,41.226,41.226,0,0,1,5.054-.046c2.065.161,2.538.806,2.563,2.89,0,.383,0,.766,0,1.11,1.192.513,2.274,1.057,3.413,1.423a1.643,1.643,0,0,0,1.309-.4c1.829-1.637,2.521-1.721,4.324-.1a33.656,33.656,0,0,1,3.215,3.329,2.048,2.048,0,0,1-.207,3.2,1.8,1.8,0,0,0-.451,2.694,16.092,16.092,0,0,1,1.005,2.451M123.01,40.844c.416-3.384.416-3.384,3.479-4.616a2.115,2.115,0,0,0,.533-.222c2-1.587,3.727-1.36,5.186.756.037.053.172.038.429.086l3.659-3.42c-.67-.537-1.04-.852-1.428-1.141a1.974,1.974,0,0,1-.47-3.105,11.13,11.13,0,0,0,1.176-2.637c.791-2.283.769-2.267,3.119-2.393.4-.021,1.112-.317,1.125-.521.1-1.5.052-3.012.052-4.583a14.61,14.61,0,0,0-1.737.01,1.885,1.885,0,0,1-2.408-1.808,9.425,9.425,0,0,0-.778-2.175c-1.259-2.809-1.269-2.8.815-5.064.055-.059.054-.17.092-.3l-3.431-3.824c-1.574,2.86-3.42,2.879-5.511,1.276a.964.964,0,0,0-.4-.159c-2.47-.46-4.216-1.477-3.19-4.677-1.7,0-3.127-.043-4.551.039-.258.015-.736.588-.69.821.475,2.422-.874,3.3-2.936,3.642a1.716,1.716,0,0,0-.67.268c-2.135,1.463-4.127,1.915-5.645-1.06L104.77,9.862c.8.582,1.271.917,1.734,1.268a1.735,1.735,0,0,1,.386,2.738,5.174,5.174,0,0,0-.979,2.083c-.381,2.511-1.7,3.6-4.233,3.142-.068-.012-.159.095-.3.184v5.065c3.171-1.029,4.135.783,4.613,3.215a.724.724,0,0,0,.1.271c1.462,2.087,1.876,4.029-1.027,5.482l3.616,3.7c2.588-2.289,2.588-2.289,5.5-.995a3.089,3.089,0,0,0,.8.33c2.451.3,3.527,1.621,3.093,4.095-.013.075.078.168.2.4Z" transform="translate(-70.291 0)" fill="#ca201c" stroke="#ca201c" stroke-width="1"/>
    <path id="Path_147" data-name="Path 147" d="M17.946,130.628a1.849,1.849,0,0,1-2.009,1.79,1.9,1.9,0,0,1-1.819-2.007,1.97,1.97,0,0,1,2.036-1.815,1.893,1.893,0,0,1,1.792,2.031" transform="translate(-10.019 -91.285)" fill="#ca201c" stroke="#ca201c" stroke-width="1"/>
    <path id="Path_148" data-name="Path 148" d="M156.49,46.212A11.626,11.626,0,1,1,145,34.489,11.593,11.593,0,0,1,156.49,46.212m-2.333-.109a9.224,9.224,0,0,0-9.305-9.285,9.287,9.287,0,1,0,9.305,9.285" transform="translate(-94.581 -24.483)" fill="#ca201c" stroke="#ca201c" stroke-width="1"/>
    <path id="Path_149" data-name="Path 149" d="M160.142,65.886c1.553-1.774,2.861-3.252,4.149-4.747.545-.632,1.154-1.179,1.953-.537.9.727.363,1.44-.213,2.1-1.5,1.7-3,3.4-4.472,5.126-.8.938-1.562,1-2.422.093a21.841,21.841,0,0,1-2.2-2.291c-.288-.412-.088-1.164-.109-1.762.563.041,1.255-.107,1.659.168a10.212,10.212,0,0,1,1.654,1.853" transform="translate(-111.294 -42.815)" fill="#ca201c" stroke="#ca201c" stroke-width="1"/>
  </g>
</svg>
